<svg xmlns="http://www.w3.org/2000/svg" width="16" height="19" viewBox="0 0 16 19">
    <g fill="none" fill-rule="evenodd">
        <path stroke="#212121" d="M-16.5-14.5h49v49h-49z"/>
        <path fill="#F70000" d="M11.37 8.927L6.52 14.38a.268.268 0 0 1-.334.054c-.11-.064-.161-.172-.122-.295l1.099-3.435h-1.92c-.084 0-.164-.065-.215-.133a.303.303 0 0 1-.045-.25l1.482-5.463a.28.28 0 0 1 .26-.21h3.501c.09 0 .175.05.225.126.05.076.059.202.023.286L9.019 8.526h2.15c.106 0 .203.036.246.135.043.098.025.186-.046.266m4.067-4.76L8.512.13c-.295-.172-.784-.172-1.079 0L.53 4.167c-.295.172-.53.595-.53.94v8.076c0 .345.231.768.526.94l6.905 4.038c.295.172.775.172 1.07 0l6.936-4.038c.295-.172.563-.595.563-.94V5.107c0-.345-.27-.768-.564-.94"/>
    </g>
</svg>
