<svg xmlns="http://www.w3.org/2000/svg" xmlns:xlink="http://www.w3.org/1999/xlink" width="128" height="35" viewBox="0 0 128 35">
    <defs>
        <path id="a" d="M0 34.036h142V.092H0z"/>
    </defs>
    <g fill="none" fill-rule="evenodd">
        <path stroke="#CCC" d="M-10.5-7.5h149v49h-149z"/>
        <g transform="translate(-7)">
            <path fill="#F70000" d="M29.025 16.701L19.94 26.797a.505.505 0 0 1-.627.1.483.483 0 0 1-.23-.575l2.061-6.391h-3.598a.526.526 0 0 1-.402-.215.527.527 0 0 1-.085-.45l2.776-10.063c.062-.218.26-.338.488-.338h6.561c.17 0 .329.049.422.19.094.142.109.38.042.535l-2.726 6.422h4.03c.198 0 .38.04.46.223.081.18.047.317-.086.466m7.326-8.812L23.524.414c-.552-.32-1.396-.32-1.948 0L8.504 7.889c-.553.32-1.128 1.101-1.128 1.74V24.58c0 .638.605 1.421 1.157 1.74l13.026 7.475c.553.32 1.496.32 2.048 0l12.725-7.475c.552-.319.78-1.102.78-1.74V9.628c0-.638-.208-1.42-.76-1.739M103.453 26.949c-1.777 0-3.222-1.203-3.222-2.68 0-1.463 1.445-2.655 3.222-2.655 1.838 0 3.276 1.168 3.276 2.655 0 1.503-1.438 2.68-3.276 2.68m0-8.135c-3.61 0-6.662 2.498-6.662 5.455 0 3.022 2.99 5.48 6.662 5.48 3.718 0 6.742-2.458 6.742-5.48 0-3.008-3.024-5.455-6.742-5.455"/>
            <mask id="b" fill="#fff">
                <use xlink:href="#a"/>
            </mask>
            <path fill="#F70000" d="M49.561 16.012h5.072v-3.228H49.56v3.228zm8.3-2.075h4.15v8.299h3.226V4.946H62.01v6.224h-4.15V6.1h-3.227v3.92H49.56v-3.92h-3.227v12.678H57.86v-4.84zM68.004 9.788h6.454v2.002c0 .94-.114 1.766-.263 2.456-.15.687-.484 1.358-.958 1.994-.475.638-1.189 1.315-2.104 2.013-.917.7-2.163 1.549-3.696 2.524l-.029.017 1.948 2.484.022-.016c1.767-1.164 3.211-2.185 4.292-3.034 1.086-.851 1.937-1.686 2.53-2.48.593-.795.986-1.627 1.19-2.474.203-.845.295-1.847.295-2.976V6.79h-9.681v2.998zM98.372 14.288c.07.143.26.344.578.614.337.286.794.632 1.356 1.028a79.392 79.392 0 0 0 3.272 2.207l.02.015 1.817-2.358-.027-.016a57.89 57.89 0 0 1-3.77-2.544 5.816 5.816 0 0 1-.86-.748 4.023 4.023 0 0 1-.53-.71c-.13-.23-.26-.48-.303-.743-.045-.265-.11-.556-.11-.864V8.865h4.611V6.099H91.748v2.766h4.84v1.304c0 .631-.175 1.198-.428 1.685-.255.49-.637.936-1.093 1.33a45.202 45.202 0 0 1-4.398 3.269l-.03.017 2.001 2.435.021-.015c.67-.447 1.309-.897 1.902-1.338.595-.443 1.18-.893 1.739-1.337a16.99 16.99 0 0 0 1.465-1.21c.336-.32.535-.556.605-.717M128.491 19.612c-1.25.168-2.617.342-4.062.4-1.44.06-2.817.15-4.09.15h-1.851v-3.92h7.377v-2.766h-7.377V9.557h8.298V6.79h-11.755v16.137h4.51c.839 0 1.671-.06 2.47-.068.837-.008 1.664-.056 2.46-.09a63.35 63.35 0 0 0 2.326-.154c.74-.06 1.429-.148 2.048-.25l.029-.006-.354-2.75-.029.003zM53.71 20.622h-3.688V29.152h15.445v-2.767H53.711zM85.293 5.086v7.237h-2.074V4.947H79.76v23.138l3.459-.82V15.319h2.074v12.766l3.457-.82V4.947h-3.457z" mask="url(#b)"/>
            <path fill="#F70000" d="M130.936 4.947v8.529h-4.15V16.474h4.15v11.612l3.689-.879V4.947zM110.42 4.947h-3.689v13.831h3.688v-5.301h3.227v-2.768h-3.227z" mask="url(#b)"/>
        </g>
    </g>
</svg>
